#!OML:ASF H:\MichaelJackson\Top Level 1\Subject 1\Session 1\male.ASF
:FULLY-SPECIFIED
:DEGREES
366
root -15.4499 16.9786 -8.11626 10.1231 6.78808 2.78144
lowerback 6.85398 1.27834 -2.48209
upperback 2.68402 1.50548 -2.4751
thorax -1.06954 0.752479 -1.26953
lowerneck -3.39692 -2.68991 -0.882027
upperneck -1.4444 -3.55352 2.72081
head 0.185704 -1.76302 0.93283
rclavicle 5.1684e-015 -9.93923e-015
rhumerus -42.0742 0.401841 -92.734
rradius 49.5428
rwrist 4.65723
rhand -32.997 -30.3522
rfingers 7.12502
rthumb -6.21131 -780.241
lclavicle 5.1684e-015 -9.93923e-015
lhumerus -39.5452 -24.1713 87.6604
lradius 78.6787
lwrist 14.8278
lhand -24.8376 28.6529
lfingers 7.12502
lthumb 1.6684 58.6261
rfemur -46.2386 -9.39234 16.0251
rtibia 85.9936
rfoot 17.3774 3.83618
rtoes 30.5495
lfemur -31.8234 2.21528 -23.3928
ltibia 36.5198
lfoot -17.4314 -7.50811
ltoes 10.4128
367
root -15.4165 16.9907 -8.01054 9.99857 6.69203 3.02849
lowerback 6.89062 1.18972 -2.65368
upperback 2.68876 1.37528 -2.47901
thorax -1.08914 0.686835 -1.16825
lowerneck -3.52776 -2.62918 -0.854742
upperneck -1.28222 -3.47636 2.6569
head 0.253667 -1.72277 0.906666
rclavicle -8.05078e-015 1.70955e-014
rhumerus -41.8193 0.163801 -92.2451
rradius 48.2847
rwrist 5.10446
rhand -32.7206 -30.1373
rfingers 7.12502
rthumb -5.94443 -780.034
lclavicle -8.05078e-015 1.70955e-014
lhumerus -38.1726 -24.9629 86.6635
lradius 79.9386
lwrist 15.4695
lhand -24.2925 27.3661
lfingers 7.12502
lthumb 2.19489 57.3346
rfemur -47.7687 -9.58227 16.1208
rtibia 86.5825
rfoot 16.9887 4.17398
rtoes 29.774
lfemur -31.0596 1.90887 -23.6575
ltibia 36.2704
lfoot -17.7038 -7.17923
ltoes 10.727
368
root -15.3833 17.0011 -7.90179 9.90856 6.57834 3.24654
lowerback 6.84465 1.10743 -2.79165
upperback 2.68674 1.25911 -2.48493
thorax -1.06843 0.628121 -1.08713
lowerneck -3.66182 -2.57671 -0.813105
upperneck -1.11326 -3.41079 2.58188
head 0.324093 -1.68845 0.874657
rclavicle 1.93815e-014 -1.59028e-015
rhumerus -41.5532 -0.112685 -91.7563
rradius 46.994
rwrist 5.53433
rhand -32.3459 -29.7924
rfingers 7.12502
rthumb -5.58274 -779.699
lclavicle 1.93815e-014 -1.59028e-015
lhumerus -36.7018 -25.6317 85.5706
lradius 81.051
lwrist 15.9537
lhand -23.6953 25.9806
lfingers 7.12502
lthumb 2.77159 55.9424
rfemur -49.2205 -9.67434 16.2826
rtibia 86.8351
rfoot 16.6761 4.35018
rtoes 29.028
lfemur -30.355 1.58537 -23.8946
ltibia 36.0705
lfoot -18.0028 -6.79756
ltoes 11.0091
369
root -15.3498 17.0094 -7.7905 9.84877 6.45067 3.44076
lowerback 6.74216 1.02652 -2.89253
upperback 2.66702 1.14919 -2.49671
thorax -1.0333 0.572652 -1.0325
lowerneck -3.78301 -2.52298 -0.773524
upperneck -0.941111 -3.34353 2.51955
head 0.393846 -1.65333 0.847317
rclavicle 3.67752e-015 3.18055e-015
rhumerus -41.3098 -0.416637 -91.2786
rradius 45.7078
rwrist 5.93041
rhand -31.9323 -29.3528
rfingers 7.12502
rthumb -5.18341 -779.269
lclavicle 3.67752e-015 3.18055e-015
lhumerus -35.1723 -26.1479 84.3951
lradius 82.0289
lwrist 16.2832
lhand -22.9362 24.4134
lfingers 7.12502
lthumb 3.5047 54.3643
rfemur -50.5758 -9.67725 16.4897
rtibia 86.7484
rfoot 16.5051 4.36892
rtoes 28.3408
lfemur -29.7032 1.27542 -24.119
ltibia 35.9142
lfoot -18.3236 -6.39698
ltoes 11.2663
370
root -15.3161 17.0154 -7.67703 9.8051 6.31627 3.61012
lowerback 6.62139 0.944204 -2.94952
upperback 2.61999 1.03999 -2.51781
thorax -1.01491 0.518018 -1.01233
lowerneck -3.89168 -2.47235 -0.726026
upperneck -0.747569 -3.28116 2.46349
head 0.468387 -1.62061 0.820751
rclavicle -4.07509e-015 1.35174e-014
rhumerus -41.1231 -0.752982 -90.8194
rradius 44.4601
rwrist 6.31151
rhand -31.495 -28.8554
rfingers 7.12502
rthumb -4.76107 -778.782
lclavicle -4.07509e-015 1.35174e-014
lhumerus -33.6231 -26.492 83.1515
lradius 82.8874
lwrist 16.4956
lhand -22.0305 22.7312
lfingers 7.12502
lthumb 4.37928 52.666
rfemur -51.8094 -9.60509 16.7295
rtibia 86.3294
rfoot 16.479 4.25615
rtoes 27.7148
lfemur -29.0881 1.01271 -24.335
ltibia 35.7969
lfoot -18.6682 -6.01905
ltoes 11.5101
371
root -15.2821 17.0202 -7.56106 9.75735 6.1767 3.76204
lowerback 6.48322 0.860109 -2.9686
upperback 2.57211 0.931519 -2.55021
thorax -0.986828 0.463903 -1.0251
lowerneck -4.00851 -2.42559 -0.677917
upperneck -0.551318 -3.22419 2.42861
head 0.545903 -1.59037 0.800613
rclavicle 9.54166e-015 1.03368e-014
rhumerus -40.9652 -1.11369 -90.3827
rradius 43.2738
rwrist 6.67688
rhand -31.0312 -28.3801
rfingers 7.12502
rthumb -4.31323 -778.316
lclavicle 9.54166e-015 1.03368e-014
lhumerus -32.0055 -26.6282 81.8325
lradius 83.6073
lwrist 16.6165
lhand -20.9062 20.9934
lfingers 7.12502
lthumb 5.46495 50.9029
rfemur -52.8796 -9.47504 16.9717
rtibia 85.5821
rfoot 16.5764 4.05713
rtoes 27.3301
lfemur -28.4775 0.830798 -24.5556
ltibia 35.7103
lfoot -19.0453 -5.69664
ltoes 11.7385
372
root -15.2479 17.0236 -7.44231 9.69052 6.04566 3.91461
lowerback 6.34681 0.770255 -2.96921
upperback 2.51554 0.815944 -2.59454
thorax -0.968244 0.406493 -1.06045
lowerneck -4.10325 -2.38368 -0.629647
upperneck -0.350731 -3.174 2.40672
head 0.621707 -1.56349 0.784718
rclavicle 1.49089e-015 1.55052e-014
rhumerus -40.8731 -1.4812 -89.9703
rradius 42.1637
rwrist 7.04485
rhand -30.5925 -27.9596
rfingers 7.12502
rthumb -3.88966 -777.904
lclavicle 1.49089e-015 1.55052e-014
lhumerus -30.3524 -26.5226 80.4763
lradius 84.17
lwrist 16.6883
lhand -19.4466 19.1835
lfingers 7.12502
lthumb 6.87407 49.0519
rfemur -53.7555 -9.32533 17.1856
rtibia 84.5244
rfoot 16.7386 3.83855
rtoes 26.9535
lfemur -27.8436 0.749628 -24.8003
ltibia 35.6408
lfoot -19.4541 -5.47
ltoes 11.961
373
root -15.2157 17.0255 -7.32185 9.58421 5.90204 4.03846
lowerback 6.25858 0.688687 -2.95684
upperback 2.44827 0.70927 -2.63866
thorax -0.987471 0.353897 -1.10457
lowerneck -4.19029 -2.35004 -0.571808
upperneck -0.137016 -3.1357 2.38832
head 0.700629 -1.54243 0.768226
rclavicle 2.21645e-014 -1.43125e-014
rhumerus -40.8563 -1.85239 -89.5835
rradius 41.1574
rwrist 7.39949
rhand -30.1529 -27.6116
rfingers 7.12502
rthumb -3.46512 -777.563
lclavicle 2.21645e-014 -1.43125e-014
lhumerus -28.6469 -26.1552 79.1117
lradius 84.5274
lwrist 16.7595
lhand -17.5781 17.308
lfingers 7.12502
lthumb 8.67746 47.1096
rfemur -54.4269 -9.11548 17.4015
rtibia 83.1718
rfoot 16.8966 3.64759
rtoes 26.469
lfemur -27.1707 0.806258 -25.025
ltibia 35.5709
lfoot -19.8769 -5.3551
ltoes 12.1921
374
root -15.1849 17.026 -7.19847 9.43302 5.76281 4.17515
lowerback 6.18101 0.610629 -2.96603
upperback 2.39684 0.606013 -2.68969
thorax -0.99658 0.302791 -1.14415
lowerneck -4.25783 -2.32177 -0.523935
upperneck 0.0577421 -3.10418 2.39383
head 0.771407 -1.52469 0.761037
rclavicle 7.15625e-015 2.5842e-014
rhumerus -40.8872 -2.2175 -89.2188
rradius 40.2511
rwrist 7.75313
rhand -29.7132 -27.3519
rfingers 7.12502
rthumb -3.04046 -777.31
lclavicle 7.15625e-015 2.5842e-014
lhumerus -26.8621 -25.5111 77.7635
lradius 84.6409
lwrist 16.8903
lhand -15.2615 15.4028
lfingers 7.12502
lthumb 10.9125 45.0992
rfemur -54.8691 -8.90371 17.5642
rtibia 81.5471
rfoot 16.9956 3.56961
rtoes 25.8934
lfemur -26.4346 1.00307 -25.2747
ltibia 35.4937
lfoot -20.3027 -5.39249
ltoes 12.5205
375
root -15.155 17.0251 -7.07248 9.25848 5.64831 4.37717
lowerback 6.09768 0.53198 -3.03006
upperback 2.35968 0.499436 -2.76542
thorax -0.988069 0.249736 -1.17827
lowerneck -4.30606 -2.30169 -0.483451
upperneck 0.236762 -3.08346 2.42493
head 0.835039 -1.5122 0.763107
rclavicle 1.41137e-014 -2.78299e-015
rhumerus -40.9691 -2.5762 -88.8807
rradius 39.4511
rwrist 8.09665
rhand -29.2689 -27.1974
rfingers 7.12502
rthumb -2.6114 -777.161
lclavicle 1.41137e-014 -2.78299e-015
lhumerus -24.9977 -24.6138 76.4722
lradius 84.4694
lwrist 17.1325
lhand -12.5973 13.579
lfingers 7.12502
lthumb 13.4814 43.1227
rfemur -55.1063 -8.75168 17.6167
rtibia 79.6799
rfoot 16.9426 3.72335
rtoes 24.8407
lfemur -25.6474 1.32078 -25.6037
ltibia 35.4035
lfoot -20.7289 -5.6017
ltoes 12.9762
376
root -15.1284 17.0227 -6.94402 9.0427 5.52933 4.56805
lowerback 6.02085 0.46793 -3.12497
upperback 2.34479 0.411353 -2.83274
thorax -0.960527 0.205502 -1.18784
lowerneck -4.36065 -2.2907 -0.449395
upperneck 0.40589 -3.07476 2.46731
head 0.89736 -1.50552 0.769524
rclavicle 6.95746e-016 4.77083e-015
rhumerus -41.0828 -2.90348 -88.569
rradius 38.7482
rwrist 8.41504
rhand -28.8306 -27.1257
rfingers 7.12502
rthumb -2.18806 -777.094
lclavicle 6.95746e-016 4.77083e-015
lhumerus -23.0517 -23.4702 75.277
lradius 83.9832
lwrist 17.5319
lhand -9.71104 11.9208
lfingers 7.12502
lthumb 16.2619 41.2589
rfemur -55.1403 -8.5775 17.6488
rtibia 77.5893
rfoot 16.7548 4.0746
rtoes 23.3891
lfemur -24.8115 1.78965 -25.91
ltibia 35.2986
lfoot -21.1386 -5.97631
ltoes 13.5646
377
root -15.1039 17.0186 -6.81382 8.81577 5.4316 4.78497
lowerback 5.93926 0.411863 -3.25679
upperback 2.32654 0.332056 -2.90689
thorax -0.933827 0.165547 -1.18455
lowerneck -4.40172 -2.29097 -0.412941
upperneck 0.596302 -3.08188 2.51026
head 0.964422 -1.50653 0.775464
rclavicle -2.22639e-014 2.70347e-014
rhumerus -41.2694 -3.20644 -88.2814
rradius 38.1474
rwrist 8.69872
rhand -28.4135 -27.1081
rfingers 7.12502
rthumb -1.78531 -777.08
lclavicle -2.22639e-014 2.70347e-014
lhumerus -21.0767 -22.1397 74.2359
lradius 83.1719
lwrist 18.1374
lhand -6.83498 10.5399
lfingers 7.12502
lthumb 19.0295 39.629
rfemur -55.012 -8.43732 17.6218
rtibia 75.3105
rfoot 16.408 4.64161
rtoes 21.4895
lfemur -23.9536 2.36963 -26.2329
ltibia 35.1765
lfoot -21.5169 -6.51743
ltoes 14.3293
